<?xml version="1.0" encoding="UTF-8"?>
<svg version="1.1" xmlns="http://www.w3.org/2000/svg" width="296" height="298">
<path d="M0 0 C0.83966309 0.2470166 1.67932617 0.4940332 2.54443359 0.74853516 C13.24351091 3.92090357 23.87084349 7.27781577 34 12 C35.65128906 12.74830078 35.65128906 12.74830078 37.3359375 13.51171875 C51.46860401 20.20367673 63.35961857 29.6637277 75 40 C75.65355469 40.58007812 76.30710938 41.16015625 76.98046875 41.7578125 C95.47688001 59.24373098 108.26605351 83.68184588 115 108 C115.31759277 109.12027588 115.31759277 109.12027588 115.64160156 110.26318359 C122.00220492 133.79539998 121.63653299 162.59031172 115 186 C114.67854004 187.16088135 114.67854004 187.16088135 114.35058594 188.34521484 C111.16694471 199.51576387 106.671868 209.87685601 101 220 C100.62891113 220.66241699 100.25782227 221.32483398 99.87548828 222.00732422 C90.84968131 237.82255652 78.78190214 252.23051659 64.375 263.4375 C63.46886963 264.14289917 63.46886963 264.14289917 62.54443359 264.86254883 C46.79991303 276.92239998 29.08233001 285.71590695 10 291 C8.87972412 291.31759277 8.87972412 291.31759277 7.73681641 291.64160156 C-15.79539998 298.00220492 -44.59031172 297.63653299 -68 291 C-68.7739209 290.78569336 -69.5478418 290.57138672 -70.34521484 290.35058594 C-81.51576387 287.16694471 -91.87685601 282.671868 -102 277 C-102.66241699 276.62891113 -103.32483398 276.25782227 -104.00732422 275.87548828 C-119.82255652 266.84968131 -134.23051659 254.78190214 -145.4375 240.375 C-145.90776611 239.77091309 -146.37803223 239.16682617 -146.86254883 238.54443359 C-158.92239998 222.79991303 -167.71590695 205.08233001 -173 186 C-173.21172852 185.25314941 -173.42345703 184.50629883 -173.64160156 183.73681641 C-180.00220492 160.20460002 -179.63653299 131.40968828 -173 108 C-172.78569336 107.2260791 -172.57138672 106.4521582 -172.35058594 105.65478516 C-169.16694471 94.48423613 -164.671868 84.12314399 -159 74 C-158.62891113 73.33758301 -158.25782227 72.67516602 -157.87548828 71.99267578 C-148.84968131 56.17744348 -136.78190214 41.76948341 -122.375 30.5625 C-121.77091309 30.09223389 -121.16682617 29.62196777 -120.54443359 29.13745117 C-87.95069908 4.17158542 -40.65855603 -12.23620746 0 0 Z " fill="#23B573" transform="translate(177,3)"/>
<path d="M0 0 C1.24523437 0.35964844 2.49046875 0.71929687 3.7734375 1.08984375 C6.86567026 2.01619493 9.93682974 2.98238695 13 4 C13 4.66 13 5.32 13 6 C14.51400391 6.37511719 14.51400391 6.37511719 16.05859375 6.7578125 C20.05065324 7.90641912 23.5247518 9.72366664 27.0625 11.875 C27.70590332 12.26502197 28.34930664 12.65504395 29.01220703 13.05688477 C53.49453332 28.38300038 71.91699557 53.02332347 78.4375 81.25 C82.34250793 99.00267127 83.07350281 118.40640155 78 136 C77.6596875 137.21171875 77.319375 138.4234375 76.96875 139.671875 C73.07077947 152.36661686 67.5456878 164.74517465 59 175 C56.85716173 172.85716173 56.16970311 171.00931125 55.1496582 168.20239258 C46.88715374 145.55061055 30.59597426 128.00489302 8.8046875 117.5703125 C-13.16822024 108.07008979 -38.49753788 106.40852033 -61 115 C-71.88151741 119.35507723 -81.11582143 125.41012184 -90 133 C-90.67417969 133.57234375 -91.34835938 134.1446875 -92.04296875 134.734375 C-103.50799732 145.33362338 -111.6611037 161.19670674 -116 176 C-124.70616679 172.58581695 -129.58059486 158.89600978 -133.19775391 150.90185547 C-138.97979109 137.19459142 -141.3901746 123.08252053 -141.3125 108.25 C-141.30686035 107.11183838 -141.3012207 105.97367676 -141.29541016 104.80102539 C-140.92874837 79.24179437 -131.90361657 55.23855193 -115 36 C-114.33742188 35.19433594 -113.67484375 34.38867188 -112.9921875 33.55859375 C-104.62768159 23.69711907 -93.66281045 14.71092164 -82 9 C-81.34 9 -80.68 9 -80 9 C-80 8.34 -80 7.68 -80 7 C-54.44470802 -2.5153929 -26.91603001 -7.98130418 0 0 Z " fill="#FEFEFE" transform="translate(177,3)"/>
<path d="M0 0 C5.82465347 0.55767959 10.6381378 2.19955636 16 4.5 C16.83160645 4.85529785 17.66321289 5.2105957 18.52001953 5.57666016 C54.17360605 21.21563521 82.25911627 51.17088112 96.859375 87.11572266 C98.86439326 92.33042521 100.50953628 97.61752086 102 103 C102.31759277 104.12027588 102.31759277 104.12027588 102.64160156 105.26318359 C109.00220492 128.79539998 108.63653299 157.59031172 102 181 C101.67854004 182.16088135 101.67854004 182.16088135 101.35058594 183.34521484 C98.16694471 194.51576387 93.671868 204.87685601 88 215 C87.62891113 215.66241699 87.25782227 216.32483398 86.87548828 217.00732422 C77.84968131 232.82255652 65.78190214 247.23051659 51.375 258.4375 C50.46886963 259.14289917 50.46886963 259.14289917 49.54443359 259.86254883 C33.79991303 271.92239998 16.08233001 280.71590695 -3 286 C-4.12027588 286.31759277 -4.12027588 286.31759277 -5.26318359 286.64160156 C-28.79539998 293.00220492 -57.59031172 292.63653299 -81 286 C-81.7739209 285.78569336 -82.5478418 285.57138672 -83.34521484 285.35058594 C-94.51576387 282.16694471 -104.87685601 277.671868 -115 272 C-115.66241699 271.62891113 -116.32483398 271.25782227 -117.00732422 270.87548828 C-132.82255652 261.84968131 -147.23051659 249.78190214 -158.4375 235.375 C-158.90776611 234.77091309 -159.37803223 234.16682617 -159.86254883 233.54443359 C-171.92239998 217.79991303 -180.71590695 200.08233001 -186 181 C-186.21172852 180.25314941 -186.42345703 179.50629883 -186.64160156 178.73681641 C-193.00220492 155.20460002 -192.63653299 126.40968828 -186 103 C-185.78569336 102.2260791 -185.57138672 101.4521582 -185.35058594 100.65478516 C-182.16694471 89.48423613 -177.671868 79.12314399 -172 69 C-171.62891113 68.33758301 -171.25782227 67.67516602 -170.87548828 66.99267578 C-161.84968131 51.17744348 -149.78190214 36.76948341 -135.375 25.5625 C-134.77091309 25.09223389 -134.16682617 24.62196777 -133.54443359 24.13745117 C-125.08981319 17.66145445 -116.02904616 12.40455895 -106.5625 7.5625 C-105.56887451 7.04876831 -105.56887451 7.04876831 -104.55517578 6.5246582 C-100.70982976 4.61173258 -97.27097956 3.46868555 -93 3 C-96.20774281 5.65211593 -99.42779142 7.933333 -103 10.0625 C-127.57758468 25.62169676 -144.38643568 49.77694102 -150.79614258 78.14013672 C-154.48894993 95.24001658 -154.87455886 114.09628783 -150 131 C-149.6596875 132.21171875 -149.319375 133.4234375 -148.96875 134.671875 C-145.12942475 147.17562345 -139.78461405 159.54159387 -131.15234375 169.49609375 C-129.63888028 172.78467031 -130.13266947 174.92857157 -130.66088867 178.4465332 C-131.27519807 183.0722078 -131.18441021 187.71559362 -131.1875 192.375 C-131.20586914 193.82132812 -131.20586914 193.82132812 -131.22460938 195.296875 C-131.27398254 219.85179353 -121.3508877 241.08589065 -104.51171875 258.5859375 C-94.08639181 268.62514122 -81.77498865 275.63106703 -68 280 C-67.04609375 280.31839844 -66.0921875 280.63679688 -65.109375 280.96484375 C-57.88916185 283.0156111 -50.83031451 283.27610059 -43.375 283.3125 C-42.42125488 283.31805908 -41.46750977 283.32361816 -40.48486328 283.3293457 C-15.98180005 283.08258564 5.09292464 273.34411934 22.5859375 256.51171875 C33.03133696 245.66457316 39.66522989 233.34478142 44 219 C44.35191406 217.8759375 44.70382813 216.751875 45.06640625 215.59375 C47.05149817 207.95239198 47.18236218 200.47558551 47.1875 192.625 C47.19974609 191.64789063 47.21199219 190.67078125 47.22460938 189.6640625 C47.23437473 184.76836386 46.95439249 180.44048993 45.7421875 175.6875 C44.91136192 171.94078543 44.89818771 171.23174665 46.52734375 167.5234375 C47.32269531 166.48445312 48.11804688 165.44546875 48.9375 164.375 C61.68658845 146.6061583 67.42623597 124.96869619 67.3125 103.25 C67.30686035 102.11183838 67.3012207 100.97367676 67.29541016 99.80102539 C66.92878226 74.24415694 57.90501232 50.23560626 41 31 C40.32582031 30.18273437 39.65164062 29.36546875 38.95703125 28.5234375 C28.6414293 16.38522464 14.86062078 6.74160348 0 1 C0 0.67 0 0.34 0 0 Z " fill="#009245" transform="translate(190,8)"/>
<path d="M0 0 C3.03978021 0.68164768 4.80055419 2.23591662 6.93359375 4.43359375 C8.54310918 7.6526246 8.17594123 11.18198207 8.25 14.72265625 C8.2707811 15.54108002 8.29156219 16.35950378 8.31297302 17.20272827 C8.37844187 19.82126341 8.43734101 22.43990014 8.49609375 25.05859375 C8.53928151 26.83204182 8.58289589 28.60547956 8.62695312 30.37890625 C8.73412051 34.73036421 8.83539544 39.08192452 8.93359375 43.43359375 C14.55893248 37.89980665 20.08862827 32.37232834 25.22167969 26.37255859 C28.49550977 22.66452115 32.04219586 19.22210898 35.55859375 15.74609375 C36.2959375 15.01326172 37.03328125 14.28042969 37.79296875 13.52539062 C39.21025898 12.11699021 40.62850194 10.70954766 42.04785156 9.30322266 C44.35029081 7.02045728 46.64310312 4.7283418 48.93359375 2.43359375 C50.93359375 0.43359375 50.93359375 0.43359375 54.68359375 -0.00390625 C57.89209233 0.08391762 59.84692188 0.64322482 62.43359375 2.55859375 C64.93359375 5.43359375 64.93359375 5.43359375 65.55859375 8.37109375 C63.68250086 17.5639489 54.55528164 24.24268471 47.74609375 30.05859375 C44.04920325 33.22206518 41.00869103 36.66659959 37.93359375 40.43359375 C38.52785156 41.25859375 39.12210938 42.08359375 39.734375 42.93359375 C45.7825144 51.3523172 51.71750034 59.84130089 57.54589844 68.41357422 C58.94964945 70.45696548 60.38031049 72.47924288 61.81640625 74.5 C62.73078259 75.81097908 63.64485676 77.12216898 64.55859375 78.43359375 C64.98462891 79.02003662 65.41066406 79.60647949 65.84960938 80.21069336 C68.95037408 84.71689117 69.66946097 88.09473963 69.93359375 93.43359375 C69.13721233 96.18472956 68.57593683 97.05124668 66.12890625 98.5078125 C63.77825533 99.49910123 62.03836754 99.7961914 59.49609375 99.87109375 C58.75488281 99.91105469 58.01367188 99.95101562 57.25 99.9921875 C51.21002509 98.53566741 47.90838254 91.63518967 44.80859375 86.68359375 C43.84652267 85.17176776 42.8842778 83.66005235 41.921875 82.1484375 C41.43154785 81.3735498 40.9412207 80.59866211 40.43603516 79.80029297 C37.98087337 75.93283468 35.4874524 72.09029148 32.99609375 68.24609375 C32.5479834 67.55225586 32.09987305 66.85841797 31.63818359 66.14355469 C29.10153532 62.21849576 26.53568187 58.31559528 23.93359375 54.43359375 C17.7463881 57.24061579 11.90350812 61.16624175 8.93359375 67.43359375 C7.93083323 72.79015812 7.9421261 78.13919034 8.08129883 83.57250977 C8.31848453 93.67723892 8.31848453 93.67723892 3.93359375 98.43359375 C0.77563268 100.01257428 -2.67311261 100.25287546 -6.06640625 99.43359375 C-9.74987522 96.60672029 -10.9539964 95.13229079 -11.70132446 90.48718262 C-11.73090359 88.9168587 -11.73309043 87.3458694 -11.71337891 85.77539062 C-11.7265213 84.48424095 -11.7265213 84.48424095 -11.7399292 83.16700745 C-11.76189437 80.32826993 -11.74738099 77.49109646 -11.73046875 74.65234375 C-11.73383772 72.67606305 -11.73869101 70.69978436 -11.7449646 68.72351074 C-11.75233202 64.58419035 -11.74163451 60.44540991 -11.71826172 56.30615234 C-11.68977415 51.00288668 -11.70617881 45.70088618 -11.73612404 40.39766693 C-11.75420046 36.31750981 -11.74843737 32.23765215 -11.73548508 28.15748596 C-11.73215202 26.20227407 -11.7362346 24.2470349 -11.74788284 22.29185486 C-11.76059722 19.55777074 -11.74120714 16.82572902 -11.71337891 14.09179688 C-11.72350006 13.28541275 -11.73362122 12.47902863 -11.74404907 11.64820862 C-11.6667729 7.54569946 -11.25818203 5.67231299 -8.65487671 2.4317627 C-5.41107387 -0.07228988 -3.93192005 -0.24528046 0 0 Z " fill="#FCFEFD" transform="translate(124.06640625,155.56640625)"/>
<path d="M0 0 C6.625 0.75 6.625 0.75 10 3 C10 3.66 10 4.32 10 5 C6.08788267 3.84414715 3.1254959 2.64465038 0 0 Z " fill="#1C9E5A" transform="translate(190,8)"/>
</svg>
